<svg xmlns="http://www.w3.org/2000/svg" xmlns:xlink="http://www.w3.org/1999/xlink" zoomAndPan="magnify" preserveAspectRatio="xMidYMid meet" version="1.0" viewBox="78.42 171.02 219.83 78.73"><defs><g/></defs><g fill="#000000" fill-opacity="1"><g transform="translate(74.982033, 205.499987)"><g><path d="M 18.96875 -25.328125 C 22.5 -25.328125 25.335938 -24.140625 27.484375 -21.765625 C 29.640625 -19.398438 30.71875 -16.28125 30.71875 -12.40625 C 30.71875 -8.59375 29.664062 -5.523438 27.5625 -3.203125 C 25.457031 -0.878906 22.65625 0.28125 19.15625 0.28125 C 15.863281 0.28125 13.304688 -0.925781 11.484375 -3.34375 L 11.484375 9.015625 L 3.4375 9.015625 L 3.4375 -25.0625 L 11.484375 -25.0625 L 11.484375 -21.75 C 13.335938 -24.132812 15.832031 -25.328125 18.96875 -25.328125 Z M 17.015625 -6.09375 C 18.691406 -6.09375 20.046875 -6.703125 21.078125 -7.921875 C 22.117188 -9.148438 22.640625 -10.722656 22.640625 -12.640625 C 22.640625 -14.566406 22.117188 -16.132812 21.078125 -17.34375 C 20.046875 -18.550781 18.691406 -19.15625 17.015625 -19.15625 C 15.398438 -19.15625 14.070312 -18.550781 13.03125 -17.34375 C 12 -16.132812 11.484375 -14.566406 11.484375 -12.640625 C 11.484375 -10.691406 11.992188 -9.113281 13.015625 -7.90625 C 14.035156 -6.695312 15.367188 -6.09375 17.015625 -6.09375 Z M 17.015625 -6.09375 "/></g></g></g><g fill="#000000" fill-opacity="1"><g transform="translate(106.818499, 205.499987)"><g><path d="M 11.484375 0 L 3.4375 0 L 3.4375 -34.484375 L 11.484375 -34.484375 Z M 11.484375 0 "/></g></g></g><g fill="#000000" fill-opacity="1"><g transform="translate(121.737485, 205.499987)"><g><path d="M 14.453125 -25.421875 C 17.890625 -25.421875 20.5625 -24.625 22.46875 -23.03125 C 24.375 -21.4375 25.34375 -19.210938 25.375 -16.359375 L 25.375 0 L 17.53125 0 L 17.53125 -2.875 C 15.882812 -0.707031 13.328125 0.375 9.859375 0.375 C 7.222656 0.375 5.128906 -0.351562 3.578125 -1.8125 C 2.023438 -3.269531 1.25 -5.160156 1.25 -7.484375 C 1.25 -9.867188 2.078125 -11.71875 3.734375 -13.03125 C 5.398438 -14.351562 7.78125 -15.03125 10.875 -15.0625 L 17.484375 -15.0625 L 17.484375 -15.4375 C 17.484375 -16.675781 17.070312 -17.644531 16.25 -18.34375 C 15.425781 -19.039062 14.207031 -19.390625 12.59375 -19.390625 C 10.332031 -19.390625 7.835938 -18.691406 5.109375 -17.296875 L 2.828125 -22.59375 C 6.890625 -24.476562 10.765625 -25.421875 14.453125 -25.421875 Z M 12.3125 -5.0625 C 13.582031 -5.0625 14.695312 -5.378906 15.65625 -6.015625 C 16.625 -6.648438 17.234375 -7.476562 17.484375 -8.5 L 17.484375 -10.734375 L 12.40625 -10.734375 C 9.988281 -10.734375 8.78125 -9.835938 8.78125 -8.046875 C 8.78125 -7.109375 9.085938 -6.375 9.703125 -5.84375 C 10.328125 -5.320312 11.195312 -5.0625 12.3125 -5.0625 Z M 12.3125 -5.0625 "/></g></g></g><g fill="#000000" fill-opacity="1"><g transform="translate(149.623451, 205.499987)"><g><path d="M 19.609375 -25.421875 C 22.367188 -25.421875 24.585938 -24.546875 26.265625 -22.796875 C 27.941406 -21.046875 28.78125 -18.71875 28.78125 -15.8125 L 28.78125 0 L 20.78125 0 L 20.78125 -13.578125 C 20.78125 -15.035156 20.382812 -16.1875 19.59375 -17.03125 C 18.800781 -17.882812 17.722656 -18.3125 16.359375 -18.3125 C 14.929688 -18.3125 13.757812 -17.847656 12.84375 -16.921875 C 11.9375 -15.992188 11.40625 -14.769531 11.25 -13.25 L 11.25 0 L 3.203125 0 L 3.203125 -25.0625 L 11.25 -25.0625 L 11.25 -20.96875 C 13.019531 -23.875 15.804688 -25.359375 19.609375 -25.421875 Z M 19.609375 -25.421875 "/></g></g></g><g fill="#000000" fill-opacity="1"><g transform="translate(180.9022, 205.499987)"><g><path d="M 17.796875 -6.921875 L 19.390625 -1.34375 C 17.429688 -0.195312 15.195312 0.375 12.6875 0.375 C 10.207031 0.375 8.203125 -0.3125 6.671875 -1.6875 C 5.140625 -3.070312 4.375 -5.035156 4.375 -7.578125 L 4.375 -18.640625 L 0.890625 -18.640625 L 0.890625 -23.890625 L 4.375 -23.890625 L 4.375 -30.859375 L 12.359375 -30.859375 L 12.359375 -23.9375 L 18.921875 -23.9375 L 18.921875 -18.640625 L 12.359375 -18.640625 L 12.359375 -8.828125 C 12.359375 -7.867188 12.550781 -7.164062 12.9375 -6.71875 C 13.332031 -6.269531 13.914062 -6.0625 14.6875 -6.09375 C 15.4375 -6.09375 16.472656 -6.367188 17.796875 -6.921875 Z M 17.796875 -6.921875 "/></g></g></g><g fill="#65bf0f" fill-opacity="1"><g transform="translate(201.110931, 205.499987)"><g><path d="M 28.453125 -34.484375 L 28.453125 0 L 20.40625 0 L 20.40625 -3.296875 C 18.582031 -0.878906 16.070312 0.328125 12.875 0.328125 C 9.34375 0.328125 6.503906 -0.863281 4.359375 -3.25 C 2.222656 -5.632812 1.15625 -8.765625 1.15625 -12.640625 C 1.15625 -16.484375 2.207031 -19.566406 4.3125 -21.890625 C 6.425781 -24.210938 9.21875 -25.375 12.6875 -25.375 C 16.007812 -25.375 18.582031 -24.164062 20.40625 -21.75 L 20.40625 -34.484375 Z M 10.78125 -7.71875 C 11.800781 -6.507812 13.148438 -5.90625 14.828125 -5.90625 C 16.503906 -5.90625 17.851562 -6.507812 18.875 -7.71875 C 19.894531 -8.925781 20.40625 -10.503906 20.40625 -12.453125 C 20.40625 -14.378906 19.894531 -15.945312 18.875 -17.15625 C 17.851562 -18.363281 16.503906 -18.96875 14.828125 -18.96875 C 13.148438 -18.96875 11.800781 -18.367188 10.78125 -17.171875 C 9.757812 -15.984375 9.234375 -14.410156 9.203125 -12.453125 C 9.234375 -10.503906 9.757812 -8.925781 10.78125 -7.71875 Z M 10.78125 -7.71875 "/></g></g></g><g fill="#65bf0f" fill-opacity="1"><g transform="translate(232.993883, 205.499987)"><g><path d="M 14.828125 -25.328125 C 18.921875 -25.328125 22.222656 -24.15625 24.734375 -21.8125 C 27.242188 -19.476562 28.5 -16.390625 28.5 -12.546875 C 28.5 -8.703125 27.242188 -5.601562 24.734375 -3.25 C 22.222656 -0.894531 18.921875 0.28125 14.828125 0.28125 C 10.703125 0.28125 7.382812 -0.894531 4.875 -3.25 C 2.363281 -5.601562 1.109375 -8.703125 1.109375 -12.546875 C 1.109375 -16.390625 2.363281 -19.476562 4.875 -21.8125 C 7.382812 -24.15625 10.703125 -25.328125 14.828125 -25.328125 Z M 14.828125 -18.96875 C 13.148438 -18.96875 11.789062 -18.363281 10.75 -17.15625 C 9.71875 -15.945312 9.203125 -14.378906 9.203125 -12.453125 C 9.203125 -10.503906 9.71875 -8.929688 10.75 -7.734375 C 11.789062 -6.546875 13.148438 -5.953125 14.828125 -5.953125 C 16.472656 -5.953125 17.8125 -6.546875 18.84375 -7.734375 C 19.882812 -8.929688 20.40625 -10.503906 20.40625 -12.453125 C 20.40625 -14.378906 19.882812 -15.945312 18.84375 -17.15625 C 17.8125 -18.363281 16.472656 -18.96875 14.828125 -18.96875 Z M 14.828125 -18.96875 "/></g></g></g><g fill="#65bf0f" fill-opacity="1"><g transform="translate(262.599471, 205.499987)"><g><path d="M 14.125 -25.328125 C 16.601562 -25.328125 18.8125 -24.835938 20.75 -23.859375 C 22.6875 -22.890625 24.195312 -21.503906 25.28125 -19.703125 L 19.53125 -16.21875 C 18.289062 -17.957031 16.597656 -18.828125 14.453125 -18.828125 C 12.898438 -18.828125 11.632812 -18.242188 10.65625 -17.078125 C 9.6875 -15.921875 9.203125 -14.394531 9.203125 -12.5 C 9.203125 -10.582031 9.679688 -9.039062 10.640625 -7.875 C 11.609375 -6.71875 12.878906 -6.140625 14.453125 -6.140625 C 16.804688 -6.140625 18.507812 -7.082031 19.5625 -8.96875 L 25.421875 -5.53125 C 24.398438 -3.675781 22.90625 -2.242188 20.9375 -1.234375 C 18.96875 -0.222656 16.664062 0.28125 14.03125 0.28125 C 10.164062 0.28125 7.046875 -0.882812 4.671875 -3.21875 C 2.296875 -5.5625 1.109375 -8.640625 1.109375 -12.453125 C 1.109375 -16.296875 2.3125 -19.398438 4.71875 -21.765625 C 7.125 -24.140625 10.257812 -25.328125 14.125 -25.328125 Z M 14.125 -25.328125 "/></g></g></g><g fill="#65bf0f" fill-opacity="1"><g transform="translate(288.719316, 205.499987)"><g><path d="M 2.828125 -6.3125 C 3.546875 -7.03125 4.476562 -7.390625 5.625 -7.390625 C 6.769531 -7.390625 7.707031 -7.03125 8.4375 -6.3125 C 9.164062 -5.601562 9.53125 -4.675781 9.53125 -3.53125 C 9.53125 -2.382812 9.164062 -1.445312 8.4375 -0.71875 C 7.707031 0.0078125 6.769531 0.375 5.625 0.375 C 4.476562 0.375 3.546875 0.0078125 2.828125 -0.71875 C 2.117188 -1.445312 1.765625 -2.382812 1.765625 -3.53125 C 1.765625 -4.675781 2.117188 -5.601562 2.828125 -6.3125 Z M 2.828125 -6.3125 "/></g></g></g><g fill="#000000" fill-opacity="1"><g transform="translate(77.902946, 245.761493)"><g><path d="M 6.460938 -10.335938 C 5.433594 -10.335938 4.371094 -10.011719 3.800781 -9.535156 L 3.039062 -8.453125 L 3.039062 -13.964844 L 1.40625 -13.964844 L 1.40625 0 L 3.039062 0 L 3.039062 -1.386719 L 3.703125 -0.398438 C 4.21875 0.0195312 5.28125 0.265625 6.117188 0.265625 C 8.71875 0.265625 11.039062 -1.460938 11.039062 -5.1875 C 11.039062 -8.132812 9.402344 -10.335938 6.460938 -10.335938 Z M 6.117188 -0.988281 C 4.671875 -0.988281 3.039062 -1.976562 3.039062 -4.578125 L 3.039062 -5.128906 C 3.039062 -8.015625 4.539062 -9.082031 6.210938 -9.082031 C 8.226562 -9.082031 9.25 -7.277344 9.25 -4.996094 C 9.25 -2.355469 7.882812 -0.988281 6.117188 -0.988281 Z M 6.117188 -0.988281 "/></g></g></g><g fill="#000000" fill-opacity="1"><g transform="translate(89.509577, 245.761493)"><g><path d="M 9.632812 -10.070312 L 7.847656 -10.070312 L 4.863281 -1.214844 L 1.863281 -10.070312 L 0.0195312 -10.070312 L 4.027344 0.511719 L 3.894531 0.875 C 3.382812 2.203125 2.714844 2.640625 1.710938 2.640625 C 1.539062 2.640625 1.367188 2.640625 1.121094 2.621094 L 1.121094 3.953125 C 1.367188 3.988281 1.597656 3.988281 1.957031 3.988281 C 3.589844 3.988281 4.671875 2.984375 5.492188 0.855469 Z M 9.632812 -10.070312 "/></g></g></g><g fill="#000000" fill-opacity="1"><g transform="translate(99.254587, 245.761493)"><g/></g></g><g fill="#000000" fill-opacity="1"><g transform="translate(103.357751, 245.761493)"><g><path d="M 3.363281 -8.738281 L 5.242188 -8.738281 L 5.242188 -9.992188 L 3.363281 -9.992188 L 3.363281 -12.328125 L 1.730469 -12.328125 L 1.730469 -9.992188 L 0.378906 -9.992188 L 0.378906 -8.738281 L 1.730469 -8.738281 L 1.730469 -2.867188 C 1.730469 -2.296875 1.730469 -1.878906 1.746094 -1.613281 C 1.84375 -0.359375 2.488281 0.152344 3.742188 0.152344 C 4.199219 0.152344 4.65625 0.132812 5.128906 0.0585938 L 5.128906 -1.140625 C 3.855469 -0.988281 3.457031 -1.195312 3.382812 -2.164062 C 3.363281 -2.433594 3.363281 -2.601562 3.363281 -2.945312 Z M 3.363281 -8.738281 "/></g></g></g><g fill="#000000" fill-opacity="1"><g transform="translate(109.30354, 245.761493)"><g><path d="M 9.667969 -5.320312 C 9.667969 -8.265625 8.132812 -10.335938 5.355469 -10.335938 C 2.601562 -10.335938 0.570312 -8.265625 0.570312 -4.996094 C 0.570312 -1.445312 2.527344 0.265625 5.148438 0.265625 C 7.21875 0.265625 9.136719 -0.816406 9.535156 -3.25 L 7.828125 -3.25 C 7.597656 -1.804688 6.535156 -0.988281 5.222656 -0.988281 C 3.742188 -0.988281 2.488281 -1.878906 2.335938 -4.539062 L 9.632812 -4.539062 C 9.667969 -4.902344 9.667969 -5.167969 9.667969 -5.320312 Z M 5.320312 -9.082031 C 6.972656 -9.082031 7.863281 -7.882812 8.015625 -5.792969 L 2.355469 -5.792969 C 2.546875 -7.941406 3.722656 -9.082031 5.320312 -9.082031 Z M 5.320312 -9.082031 "/></g></g></g><g fill="#000000" fill-opacity="1"><g transform="translate(119.732415, 245.761493)"><g><path d="M 7.179688 0 L 8.816406 0 C 8.664062 -1.121094 8.625 -1.804688 8.625 -2.566406 L 8.625 -6.34375 C 8.625 -6.78125 8.605469 -7.277344 8.566406 -7.675781 C 8.398438 -9.328125 7.390625 -10.335938 4.996094 -10.335938 C 2.773438 -10.335938 1.273438 -9.101562 1.121094 -6.953125 L 2.832031 -6.953125 C 2.945312 -8.339844 3.628906 -9.082031 4.996094 -9.082031 C 6.34375 -9.082031 6.878906 -8.472656 6.953125 -7.542969 C 6.992188 -7.160156 6.992188 -6.761719 6.992188 -6.324219 L 6.992188 -6.058594 L 6.34375 -6.058594 C 2.394531 -6.058594 0.683594 -4.882812 0.683594 -2.601562 C 0.683594 -0.742188 2.109375 0.265625 3.933594 0.265625 C 4.902344 0.265625 5.773438 0.113281 6.460938 -0.359375 L 7.011719 -1.445312 Z M 4.484375 -0.988281 C 3.25 -0.988281 2.46875 -1.519531 2.46875 -2.734375 C 2.46875 -4.464844 4.21875 -5.054688 6.992188 -4.84375 L 6.992188 -3.820312 C 6.992188 -1.996094 6.003906 -0.988281 4.484375 -0.988281 Z M 4.484375 -0.988281 "/></g></g></g><g fill="#000000" fill-opacity="1"><g transform="translate(129.819351, 245.761493)"><g><path d="M 14.800781 -7.882812 C 14.570312 -9.269531 13.546875 -10.335938 11.742188 -10.335938 C 10.847656 -10.335938 10.125 -10.164062 9.613281 -9.746094 L 8.71875 -8.453125 C 8.339844 -9.554688 7.351562 -10.335938 5.8125 -10.335938 C 4.921875 -10.335938 4.199219 -10.164062 3.683594 -9.746094 L 3.039062 -8.605469 L 3.039062 -10.070312 L 1.40625 -10.070312 L 1.40625 0 L 3.039062 0 L 3.039062 -4.976562 C 3.039062 -8.035156 3.96875 -9.042969 5.242188 -9.042969 C 6.382812 -9.042969 7.105469 -8.492188 7.257812 -7.351562 C 7.3125 -6.839844 7.332031 -6.289062 7.332031 -5.394531 L 7.332031 0 L 8.96875 0 L 8.96875 -4.976562 C 8.96875 -8.035156 9.898438 -9.042969 11.171875 -9.042969 C 12.308594 -9.042969 13.03125 -8.492188 13.183594 -7.351562 C 13.242188 -6.839844 13.261719 -6.289062 13.261719 -5.394531 L 13.261719 0 L 14.894531 0 L 14.894531 -6.15625 C 14.894531 -6.972656 14.875 -7.371094 14.800781 -7.882812 Z M 14.800781 -7.882812 "/></g></g></g><g fill="#000000" fill-opacity="1"><g transform="translate(146.061034, 245.761493)"><g/></g></g><g fill="#000000" fill-opacity="1"><g transform="translate(150.164198, 245.761493)"><g><path d="M 5.964844 -13.375 C 3.550781 -13.375 1.597656 -11.949219 1.597656 -9.6875 C 1.597656 -7.523438 3.210938 -6.59375 5.527344 -6.058594 C 7.828125 -5.527344 8.738281 -4.804688 8.738281 -3.210938 C 8.738281 -1.84375 7.523438 -1.027344 6.023438 -1.027344 C 4.3125 -1.027344 3.117188 -1.996094 2.734375 -3.722656 L 0.988281 -3.722656 C 1.273438 -1.195312 3.097656 0.265625 5.984375 0.265625 C 8.511719 0.265625 10.488281 -1.214844 10.488281 -3.515625 C 10.488281 -5.738281 9.042969 -6.914062 6.15625 -7.578125 C 4.160156 -8.035156 3.34375 -8.644531 3.34375 -10.070312 C 3.34375 -11.4375 4.445312 -12.082031 5.832031 -12.082031 C 7.484375 -12.082031 8.453125 -11.132812 8.605469 -9.480469 L 10.355469 -9.480469 C 10.105469 -11.722656 8.683594 -13.375 5.964844 -13.375 Z M 5.964844 -13.375 "/></g></g></g><g fill="#000000" fill-opacity="1"><g transform="translate(161.276926, 245.761493)"><g><path d="M 5.566406 -10.335938 C 2.148438 -10.335938 0.570312 -7.882812 0.570312 -5.035156 C 0.570312 -2.203125 2.148438 0.265625 5.566406 0.265625 C 8.984375 0.265625 10.5625 -2.203125 10.5625 -5.035156 C 10.5625 -7.882812 8.984375 -10.335938 5.566406 -10.335938 Z M 5.566406 -0.988281 C 3.535156 -0.988281 2.355469 -2.679688 2.355469 -5.035156 C 2.355469 -7.410156 3.535156 -9.082031 5.566406 -9.082031 C 7.597656 -9.082031 8.777344 -7.410156 8.777344 -5.035156 C 8.777344 -2.679688 7.597656 -0.988281 5.566406 -0.988281 Z M 5.566406 -0.988281 "/></g></g></g><g fill="#000000" fill-opacity="1"><g transform="translate(172.40865, 245.761493)"><g><path d="M 5.300781 -10.335938 C 2.773438 -10.335938 0.570312 -8.414062 0.570312 -5.015625 C 0.570312 -1.328125 2.507812 0.265625 5.054688 0.265625 C 7.296875 0.265625 8.96875 -0.875 9.460938 -3.210938 L 7.75 -3.210938 C 7.410156 -1.746094 6.476562 -0.988281 5.148438 -0.988281 C 3.648438 -0.988281 2.355469 -2.203125 2.355469 -5.128906 C 2.355469 -7.847656 3.683594 -9.082031 5.261719 -9.082031 C 6.609375 -9.082031 7.484375 -8.300781 7.847656 -6.6875 L 9.554688 -6.6875 C 9.25 -8.890625 7.714844 -10.335938 5.300781 -10.335938 Z M 5.300781 -10.335938 "/></g></g></g><g fill="#000000" fill-opacity="1"><g transform="translate(182.457592, 245.761493)"><g><path d="M 2.222656 -13.375 C 1.632812 -13.375 1.179688 -12.917969 1.179688 -12.328125 C 1.179688 -11.742188 1.632812 -11.285156 2.222656 -11.285156 C 2.8125 -11.285156 3.265625 -11.742188 3.265625 -12.328125 C 3.265625 -12.917969 2.8125 -13.375 2.222656 -13.375 Z M 3.039062 0 L 3.039062 -10.070312 L 1.40625 -10.070312 L 1.40625 0 Z M 3.039062 0 "/></g></g></g><g fill="#000000" fill-opacity="1"><g transform="translate(186.978672, 245.761493)"><g><path d="M 5.566406 -10.335938 C 2.148438 -10.335938 0.570312 -7.882812 0.570312 -5.035156 C 0.570312 -2.203125 2.148438 0.265625 5.566406 0.265625 C 8.984375 0.265625 10.5625 -2.203125 10.5625 -5.035156 C 10.5625 -7.882812 8.984375 -10.335938 5.566406 -10.335938 Z M 5.566406 -0.988281 C 3.535156 -0.988281 2.355469 -2.679688 2.355469 -5.035156 C 2.355469 -7.410156 3.535156 -9.082031 5.566406 -9.082031 C 7.597656 -9.082031 8.777344 -7.410156 8.777344 -5.035156 C 8.777344 -2.679688 7.597656 -0.988281 5.566406 -0.988281 Z M 5.566406 -0.988281 "/></g></g></g><g fill="#000000" fill-opacity="1"><g transform="translate(198.110397, 245.761493)"><g><path d="M 5.300781 -10.335938 C 2.773438 -10.335938 0.570312 -8.414062 0.570312 -5.015625 C 0.570312 -1.328125 2.507812 0.265625 5.054688 0.265625 C 7.296875 0.265625 8.96875 -0.875 9.460938 -3.210938 L 7.75 -3.210938 C 7.410156 -1.746094 6.476562 -0.988281 5.148438 -0.988281 C 3.648438 -0.988281 2.355469 -2.203125 2.355469 -5.128906 C 2.355469 -7.847656 3.683594 -9.082031 5.261719 -9.082031 C 6.609375 -9.082031 7.484375 -8.300781 7.847656 -6.6875 L 9.554688 -6.6875 C 9.25 -8.890625 7.714844 -10.335938 5.300781 -10.335938 Z M 5.300781 -10.335938 "/></g></g></g><g fill="#000000" fill-opacity="1"><g transform="translate(208.159339, 245.761493)"><g><path d="M 5.355469 -10.296875 C 4.882812 -10.296875 4.371094 -10.125 3.953125 -9.839844 L 3.039062 -8.492188 L 3.039062 -10.070312 L 1.40625 -10.070312 L 1.40625 0 L 3.039062 0 L 3.039062 -5.738281 C 3.039062 -8.035156 4.332031 -9.042969 6.042969 -8.929688 L 6.042969 -10.164062 C 5.851562 -10.257812 5.625 -10.296875 5.355469 -10.296875 Z M 5.355469 -10.296875 "/></g></g></g><g fill="#000000" fill-opacity="1"><g transform="translate(214.428057, 245.761493)"><g><path d="M 7.179688 0 L 8.816406 0 C 8.664062 -1.121094 8.625 -1.804688 8.625 -2.566406 L 8.625 -6.34375 C 8.625 -6.78125 8.605469 -7.277344 8.566406 -7.675781 C 8.398438 -9.328125 7.390625 -10.335938 4.996094 -10.335938 C 2.773438 -10.335938 1.273438 -9.101562 1.121094 -6.953125 L 2.832031 -6.953125 C 2.945312 -8.339844 3.628906 -9.082031 4.996094 -9.082031 C 6.34375 -9.082031 6.878906 -8.472656 6.953125 -7.542969 C 6.992188 -7.160156 6.992188 -6.761719 6.992188 -6.324219 L 6.992188 -6.058594 L 6.34375 -6.058594 C 2.394531 -6.058594 0.683594 -4.882812 0.683594 -2.601562 C 0.683594 -0.742188 2.109375 0.265625 3.933594 0.265625 C 4.902344 0.265625 5.773438 0.113281 6.460938 -0.359375 L 7.011719 -1.445312 Z M 4.484375 -0.988281 C 3.25 -0.988281 2.46875 -1.519531 2.46875 -2.734375 C 2.46875 -4.464844 4.21875 -5.054688 6.992188 -4.84375 L 6.992188 -3.820312 C 6.992188 -1.996094 6.003906 -0.988281 4.484375 -0.988281 Z M 4.484375 -0.988281 "/></g></g></g><g fill="#000000" fill-opacity="1"><g transform="translate(224.514993, 245.761493)"><g><path d="M 3.363281 -8.738281 L 5.242188 -8.738281 L 5.242188 -9.992188 L 3.363281 -9.992188 L 3.363281 -12.328125 L 1.730469 -12.328125 L 1.730469 -9.992188 L 0.378906 -9.992188 L 0.378906 -8.738281 L 1.730469 -8.738281 L 1.730469 -2.867188 C 1.730469 -2.296875 1.730469 -1.878906 1.746094 -1.613281 C 1.84375 -0.359375 2.488281 0.152344 3.742188 0.152344 C 4.199219 0.152344 4.65625 0.132812 5.128906 0.0585938 L 5.128906 -1.140625 C 3.855469 -0.988281 3.457031 -1.195312 3.382812 -2.164062 C 3.363281 -2.433594 3.363281 -2.601562 3.363281 -2.945312 Z M 3.363281 -8.738281 "/></g></g></g><g fill="#000000" fill-opacity="1"><g transform="translate(230.460782, 245.761493)"><g><path d="M 4.332031 -10.335938 C 2.261719 -10.335938 0.855469 -9.234375 0.855469 -7.390625 C 0.855469 -5.625 2.296875 -4.882812 4.101562 -4.386719 C 5.792969 -3.933594 6.476562 -3.417969 6.476562 -2.449219 C 6.476562 -1.480469 5.605469 -0.988281 4.519531 -0.988281 C 3.363281 -0.988281 2.433594 -1.5 2.164062 -2.964844 L 0.457031 -2.964844 C 0.761719 -0.683594 2.335938 0.265625 4.40625 0.265625 C 6.535156 0.265625 8.148438 -0.683594 8.148438 -2.582031 C 8.148438 -4.292969 7.046875 -5.207031 4.730469 -5.8125 C 3.363281 -6.175781 2.527344 -6.574219 2.527344 -7.578125 C 2.527344 -8.453125 3.058594 -9.082031 4.199219 -9.082031 C 5.375 -9.082031 6.097656 -8.378906 6.324219 -7.199219 L 8.035156 -7.199219 C 7.828125 -9.042969 6.59375 -10.335938 4.332031 -10.335938 Z M 4.332031 -10.335938 "/></g></g></g></svg>